<?xml version="1.0" encoding="UTF-8"?><svg xmlns="http://www.w3.org/2000/svg" viewBox="0 0 604.41 457.38"><defs><style>.d{fill:#c17474;}</style></defs><g id="a"/><g id="b"><g id="c"><g><path class="d" d="M455.88,200.7c-.58-.3-1.16-.59-1.73-.87-32.92-16.05-76.42-14.13-132.98,5.89-.33,.12-.66,.23-.99,.35,47.92-39.97,64.51-75.21,69.86-98.29,1.05-4.53,1.75-9.16,2.06-13.76,1.68-24.23-7-48.45-23.8-66.46C351.73,9.79,329.37,0,305.36,0c-19.23,0-37.96,6.4-53.15,18.1C237.03,6.4,218.3,0,199.07,0c-48.03,0-87.11,39.08-87.11,87.11,0,8.81,1.31,17.52,3.96,26.08l.06,.14c1.42,4.48,3.24,8.94,5.35,13.06,14.83,32.71,38.48,58.87,61.29,78.38-2.13-.76-4.26-1.49-6.39-2.2-53.22-17.62-94.78-18.82-127.03-3.66-1.16,.54-2.31,1.11-3.44,1.7-20.55,10.65-35.55,29.19-42.22,52.2-6.72,23.18-3.8,48.1,8.03,68.38,9.69,16.61,24.66,29.57,42.41,36.78-2.46,19.01,1.45,38.41,11.14,55.03,24.2,41.49,77.64,55.55,119.13,31.36,7.6-4.44,14.47-9.96,20.54-16.57l.08-.12c3.16-3.47,6.08-7.3,8.59-11.2,22.54-31.76,33.26-68.29,38.17-99.64,4.81,31.85,15.44,68.97,37.92,100.65,2.62,4.07,5.55,7.89,8.58,11.23l.35,.42c5.93,6.45,12.79,11.97,20.4,16.41,13.77,8.03,28.85,11.85,43.74,11.85,29.99,0,59.22-15.48,75.39-43.2,9.69-16.62,13.6-36.02,11.14-55.03,17.75-7.22,32.72-20.17,42.41-36.78,.74-1.27,1.45-2.56,2.13-3.87,10.57-20.41,12.45-44,5.29-66.43-7.21-22.55-22.51-40.8-43.11-51.37Z"/><rect class="d" x="518.78" y="345.51" width="85.63" height="85.63" rx="20.72" ry="20.72"/></g></g></g></svg>